<?xml version="1.0" encoding="iso-8859-1"?>
<!-- Generator: Adobe Illustrator 19.0.0, SVG Export Plug-In . SVG Version: 6.00 Build 0)  -->
<svg version="1.1" id="Capa_1" xmlns="http://www.w3.org/2000/svg" xmlns:xlink="http://www.w3.org/1999/xlink" x="0px" y="0px"
	 viewBox="0 0 512 512" style="enable-background:new 0 0 512 512;" xml:space="preserve">
<g>
	
		<linearGradient id="SVGID_1_" gradientUnits="userSpaceOnUse" x1="-42.9248" y1="605.7109" x2="16.9822" y2="605.7109" gradientTransform="matrix(8.5333 0 0 -8.5333 369.1334 5433.2671)">
		<stop  offset="0" style="stop-color:#00A2CC"/>
		<stop  offset="1" style="stop-color:#2B32B2"/>
	</linearGradient>
	<path style="fill:url(#SVGID_1_);" d="M68.267,324.267h68.267c4.71,0,8.533-3.823,8.533-8.533v-102.4
		c0-4.71-3.823-8.533-8.533-8.533H68.267c-4.71,0-8.533,3.823-8.533,8.533v102.4C59.733,320.444,63.556,324.267,68.267,324.267z
		 M76.8,221.867H128V307.2H76.8V221.867z"/>
	
		<linearGradient id="SVGID_2_" gradientUnits="userSpaceOnUse" x1="-42.9248" y1="589.7109" x2="16.9822" y2="589.7109" gradientTransform="matrix(8.5333 0 0 -8.5333 369.1334 5433.2671)">
		<stop  offset="0" style="stop-color:#00A2CC"/>
		<stop  offset="1" style="stop-color:#2B32B2"/>
	</linearGradient>
	<path style="fill:url(#SVGID_2_);" d="M59.733,452.267c0,4.71,3.823,8.533,8.533,8.533h68.267c4.71,0,8.533-3.823,8.533-8.533
		v-102.4c0-4.71-3.823-8.533-8.533-8.533H68.267c-4.71,0-8.533,3.823-8.533,8.533V452.267z M76.8,358.4H128v85.333H76.8V358.4z"/>
	
		<linearGradient id="SVGID_3_" gradientUnits="userSpaceOnUse" x1="-42.9248" y1="605.7109" x2="16.9822" y2="605.7109" gradientTransform="matrix(8.5333 0 0 -8.5333 369.1334 5433.2671)">
		<stop  offset="0" style="stop-color:#00A2CC"/>
		<stop  offset="1" style="stop-color:#2B32B2"/>
	</linearGradient>
	<path style="fill:url(#SVGID_3_);" d="M170.667,324.267h68.267c4.71,0,8.533-3.823,8.533-8.533v-102.4
		c0-4.71-3.823-8.533-8.533-8.533h-68.267c-4.71,0-8.533,3.823-8.533,8.533v102.4C162.133,320.444,165.956,324.267,170.667,324.267z
		 M179.2,221.867h51.2V307.2h-51.2V221.867z"/>
	
		<linearGradient id="SVGID_4_" gradientUnits="userSpaceOnUse" x1="-42.9248" y1="589.7109" x2="16.9822" y2="589.7109" gradientTransform="matrix(8.5333 0 0 -8.5333 369.1334 5433.2671)">
		<stop  offset="0" style="stop-color:#00A2CC"/>
		<stop  offset="1" style="stop-color:#2B32B2"/>
	</linearGradient>
	<path style="fill:url(#SVGID_4_);" d="M162.133,452.267c0,4.71,3.823,8.533,8.533,8.533h68.267c4.71,0,8.533-3.823,8.533-8.533
		v-102.4c0-4.71-3.823-8.533-8.533-8.533h-68.267c-4.71,0-8.533,3.823-8.533,8.533V452.267z M179.2,358.4h51.2v85.333h-51.2V358.4z"
		/>
	
		<linearGradient id="SVGID_5_" gradientUnits="userSpaceOnUse" x1="-42.9248" y1="605.7109" x2="16.9822" y2="605.7109" gradientTransform="matrix(8.5333 0 0 -8.5333 369.1334 5433.2671)">
		<stop  offset="0" style="stop-color:#00A2CC"/>
		<stop  offset="1" style="stop-color:#2B32B2"/>
	</linearGradient>
	<path style="fill:url(#SVGID_5_);" d="M273.067,324.267h68.267c4.71,0,8.533-3.823,8.533-8.533v-102.4
		c0-4.71-3.823-8.533-8.533-8.533h-68.267c-4.71,0-8.533,3.823-8.533,8.533v102.4C264.533,320.444,268.356,324.267,273.067,324.267z
		 M281.6,221.867h51.2V307.2h-51.2V221.867z"/>
	
		<linearGradient id="SVGID_6_" gradientUnits="userSpaceOnUse" x1="-42.9248" y1="589.7109" x2="16.9822" y2="589.7109" gradientTransform="matrix(8.5333 0 0 -8.5333 369.1334 5433.2671)">
		<stop  offset="0" style="stop-color:#00A2CC"/>
		<stop  offset="1" style="stop-color:#2B32B2"/>
	</linearGradient>
	<path style="fill:url(#SVGID_6_);" d="M264.533,452.267c0,4.71,3.823,8.533,8.533,8.533h68.267c4.71,0,8.533-3.823,8.533-8.533
		v-102.4c0-4.71-3.823-8.533-8.533-8.533h-68.267c-4.71,0-8.533,3.823-8.533,8.533V452.267z M281.6,358.4h51.2v85.333h-51.2V358.4z"
		/>
	
		<linearGradient id="SVGID_7_" gradientUnits="userSpaceOnUse" x1="-42.9248" y1="605.7109" x2="16.9822" y2="605.7109" gradientTransform="matrix(8.5333 0 0 -8.5333 369.1334 5433.2671)">
		<stop  offset="0" style="stop-color:#00A2CC"/>
		<stop  offset="1" style="stop-color:#2B32B2"/>
	</linearGradient>
	<path style="fill:url(#SVGID_7_);" d="M443.733,256c4.71,0,8.533-3.823,8.533-8.533v-34.133c0-4.71-3.823-8.533-8.533-8.533
		h-68.267c-4.71,0-8.533,3.823-8.533,8.533v102.4c0,4.71,3.823,8.533,8.533,8.533h68.267c4.71,0,8.533-3.823,8.533-8.533V281.6
		c0-4.71-3.823-8.533-8.533-8.533c-4.71,0-8.533,3.823-8.533,8.533v25.6H384v-85.333h51.2v25.6
		C435.2,252.177,439.023,256,443.733,256z"/>
	
		<linearGradient id="SVGID_8_" gradientUnits="userSpaceOnUse" x1="-42.9248" y1="589.7109" x2="16.9822" y2="589.7109" gradientTransform="matrix(8.5333 0 0 -8.5333 369.1334 5433.2671)">
		<stop  offset="0" style="stop-color:#00A2CC"/>
		<stop  offset="1" style="stop-color:#2B32B2"/>
	</linearGradient>
	<path style="fill:url(#SVGID_8_);" d="M366.933,452.267c0,4.71,3.823,8.533,8.533,8.533h68.267c4.71,0,8.533-3.823,8.533-8.533
		v-102.4c0-4.71-3.823-8.533-8.533-8.533h-68.267c-4.71,0-8.533,3.823-8.533,8.533V452.267z M384,358.4h51.2v85.333H384V358.4z"/>
	
		<linearGradient id="SVGID_9_" gradientUnits="userSpaceOnUse" x1="-42.9248" y1="606.7109" x2="16.9822" y2="606.7109" gradientTransform="matrix(8.5333 0 0 -8.5333 369.1334 5433.2671)">
		<stop  offset="0" style="stop-color:#00A2CC"/>
		<stop  offset="1" style="stop-color:#2B32B2"/>
	</linearGradient>
	<path style="fill:url(#SVGID_9_);" d="M468.983,68.267h-25.25V8.533c0-4.71-3.823-8.533-8.533-8.533H384
		c-4.71,0-8.533,3.823-8.533,8.533v59.733h-34.133V8.533c0-4.71-3.823-8.533-8.533-8.533h-51.2c-4.71,0-8.533,3.823-8.533,8.533
		v59.733h-34.133V8.533c0-4.71-3.823-8.533-8.533-8.533h-51.2c-4.71,0-8.533,3.823-8.533,8.533v59.733h-34.133V8.533
		C136.533,3.823,132.71,0,128,0H76.8c-4.71,0-8.533,3.823-8.533,8.533v59.733h-25.25C19.277,68.301,0.034,87.543,0,111.283v315.383
		c0,4.71,3.823,8.533,8.533,8.533s8.533-3.823,8.533-8.533v-256h477.867v298.667c0,14.14-11.46,25.6-25.6,25.6H42.667
		c-14.14,0-25.6-11.46-25.6-25.6V460.8c0-4.71-3.823-8.533-8.533-8.533S0,456.09,0,460.8v8.533
		C0.026,492.885,19.115,511.974,42.667,512h426.667c23.552-0.026,42.641-19.115,42.667-42.667v-358.05
		C511.966,87.543,492.723,68.301,468.983,68.267z M392.533,76.8V17.067h34.133v83.883c0.119,8.047-4.958,15.258-12.578,17.843
		c-0.162,0.043-0.316,0.111-0.478,0.145c-0.64,0.154-1.297,0.256-1.954,0.324c-0.521,0.06-1.041,0.145-1.579,0.154
		c-0.64,0-1.289-0.026-1.929-0.094c-0.495-0.043-0.99-0.068-1.476-0.154c-0.64-0.128-1.263-0.282-1.886-0.478
		c-0.478-0.145-0.973-0.265-1.434-0.444s-1.058-0.503-1.579-0.768c-0.495-0.239-0.981-0.503-1.451-0.794
		c-0.486-0.333-0.947-0.691-1.391-1.075c-0.435-0.324-0.853-0.666-1.254-1.033c-0.393-0.41-0.768-0.845-1.109-1.297
		c-0.367-0.427-0.759-0.853-1.084-1.297c-0.205-0.307-0.341-0.649-0.529-0.964c-1.57-2.603-2.406-5.581-2.423-8.619V76.8z
		 M290.133,76.8V17.067h34.133v83.883c0.119,8.047-4.958,15.258-12.578,17.843c-0.162,0.043-0.316,0.111-0.478,0.145
		c-0.64,0.154-1.297,0.256-1.954,0.324c-0.521,0.06-1.041,0.145-1.579,0.154c-0.649,0-1.297-0.026-1.937-0.094
		c-0.486-0.043-0.973-0.068-1.451-0.145c-0.657-0.128-1.306-0.299-1.946-0.503c-0.461-0.137-0.922-0.247-1.365-0.418
		c-0.563-0.239-1.109-0.503-1.647-0.802c-0.469-0.247-0.956-0.469-1.399-0.759c-0.495-0.341-0.973-0.708-1.425-1.101
		c-0.41-0.333-0.853-0.64-1.229-1.015c-0.393-0.41-0.768-0.845-1.109-1.297c-0.367-0.427-0.759-0.853-1.084-1.297
		c-0.205-0.307-0.341-0.649-0.529-0.964c-1.57-2.603-2.406-5.581-2.423-8.619V76.8z M187.733,76.8V17.067h34.133v83.883
		c0.119,8.047-4.958,15.258-12.578,17.843c-0.162,0.043-0.316,0.111-0.478,0.145c-0.64,0.154-1.297,0.256-1.954,0.324
		c-0.521,0.06-1.041,0.145-1.579,0.154c-0.64,0-1.289-0.026-1.929-0.094c-0.495-0.043-0.998-0.068-1.476-0.154
		c-0.631-0.119-1.254-0.282-1.869-0.469c-0.495-0.145-0.99-0.273-1.459-0.461c-1.033-0.469-2.039-0.981-3.021-1.553
		c-0.486-0.316-0.93-0.7-1.391-1.067c-0.461-0.367-0.853-0.657-1.254-1.041c-0.393-0.41-0.768-0.845-1.109-1.297
		c-0.367-0.427-0.759-0.853-1.084-1.297c-0.205-0.307-0.341-0.649-0.529-0.964c-1.57-2.603-2.406-5.581-2.423-8.619V76.8z
		 M85.333,76.8V17.067h34.133v83.883c0.119,8.047-4.958,15.258-12.578,17.843c-0.162,0.043-0.316,0.111-0.478,0.145
		c-0.64,0.154-1.297,0.256-1.954,0.324c-0.521,0.06-1.041,0.145-1.579,0.154c-0.649,0-1.297-0.026-1.937-0.094
		c-0.486-0.043-0.981-0.068-1.451-0.154c-0.657-0.128-1.306-0.29-1.937-0.486c-0.461-0.137-0.939-0.256-1.382-0.435
		c-0.555-0.23-1.101-0.495-1.63-0.785c-0.469-0.247-0.964-0.478-1.408-0.768c-0.486-0.341-0.964-0.708-1.417-1.092
		c-0.418-0.341-0.853-0.649-1.237-1.024c-0.393-0.41-0.768-0.845-1.109-1.297c-0.367-0.427-0.759-0.853-1.084-1.297
		c-0.205-0.307-0.341-0.649-0.529-0.964c-1.57-2.603-2.406-5.581-2.423-8.619V76.8z M494.933,153.6H17.067v-42.317
		c0.017-14.327,11.622-25.933,25.95-25.95h25.25V102.4c0,4.617,0.947,9.19,2.773,13.431c0.111,0.273,0.29,0.503,0.418,0.768
		c0.785,1.766,1.724,3.465,2.799,5.069c0.538,0.777,1.22,1.451,1.818,2.193c0.777,1.015,1.604,1.98,2.483,2.901
		c0.128,0.119,0.213,0.273,0.341,0.393c0.683,0.649,1.468,1.109,2.185,1.707c0.887,0.759,1.809,1.468,2.765,2.133
		c0.947,0.58,1.929,1.118,2.927,1.596c1.024,0.529,2.014,1.075,3.089,1.502s1.988,0.64,3.004,0.939
		c1.186,0.367,2.389,0.674,3.601,0.922c1.033,0.179,2.091,0.23,3.149,0.316c1.058,0.085,1.826,0.265,2.782,0.265
		c0.307,0,0.589-0.085,0.896-0.094c0.307-0.009,0.614,0.068,0.93,0.051c0.905-0.043,1.758-0.29,2.645-0.41
		c1.092-0.145,2.176-0.256,3.234-0.503c0.853-0.205,1.707-0.512,2.56-0.794c1.382-0.418,2.739-0.922,4.062-1.51
		c0.222-0.102,0.427-0.239,0.649-0.35c11.682-5.683,19.115-17.527,19.157-30.524V85.333h34.133V102.4
		c0,4.617,0.947,9.19,2.773,13.431c0.111,0.273,0.29,0.503,0.418,0.768c0.785,1.766,1.724,3.465,2.799,5.069
		c0.538,0.777,1.22,1.451,1.818,2.193c0.777,1.015,1.604,1.98,2.483,2.901c0.128,0.119,0.213,0.273,0.341,0.393
		c0.7,0.666,1.502,1.135,2.236,1.707c0.853,0.708,1.707,1.451,2.688,2.074c0.99,0.623,2.005,1.195,3.055,1.707
		c0.973,0.503,1.92,1.033,2.944,1.442c1.024,0.41,2.065,0.666,3.115,0.964c1.152,0.35,2.321,0.631,3.507,0.853
		c1.05,0.188,2.116,0.239,3.183,0.324c0.93,0.077,1.826,0.282,2.773,0.282c0.307,0,0.589-0.085,0.853-0.094
		c0.265-0.009,0.623,0.068,0.939,0.051c0.905-0.043,1.758-0.29,2.645-0.41c1.092-0.145,2.176-0.256,3.234-0.503
		c0.853-0.205,1.707-0.512,2.56-0.794c1.382-0.418,2.739-0.922,4.062-1.51c0.222-0.102,0.427-0.239,0.649-0.35
		c11.691-5.675,19.132-17.502,19.191-30.498V85.333h34.133V102.4c0,4.617,0.947,9.19,2.773,13.431
		c0.111,0.273,0.29,0.503,0.418,0.768c0.785,1.766,1.724,3.465,2.799,5.069c0.538,0.777,1.22,1.451,1.818,2.193
		c0.777,1.015,1.604,1.98,2.483,2.901c0.128,0.119,0.213,0.273,0.341,0.393c0.683,0.649,1.468,1.109,2.185,1.707
		c0.887,0.759,1.809,1.468,2.765,2.133c0.947,0.58,1.929,1.118,2.927,1.596c1.024,0.529,2.014,1.075,3.089,1.502
		s1.988,0.64,3.004,0.939c1.186,0.367,2.389,0.674,3.601,0.922c1.033,0.179,2.091,0.23,3.149,0.316
		c0.93,0.077,1.826,0.282,2.782,0.282c0.307,0,0.589-0.085,0.853-0.094s0.614,0.068,0.93,0.051c0.905-0.043,1.758-0.29,2.645-0.41
		c1.092-0.145,2.176-0.256,3.234-0.503c0.853-0.205,1.707-0.512,2.56-0.794c1.382-0.418,2.739-0.922,4.062-1.51
		c0.222-0.102,0.427-0.239,0.649-0.35c11.708-5.675,19.157-17.527,19.2-30.541V85.333h34.133V102.4c0,4.617,0.947,9.19,2.773,13.431
		c0.111,0.273,0.29,0.503,0.418,0.768c0.785,1.766,1.724,3.465,2.799,5.069c0.538,0.777,1.22,1.451,1.818,2.193
		c0.777,1.015,1.604,1.98,2.483,2.901c0.128,0.119,0.213,0.273,0.341,0.393c0.7,0.666,1.502,1.135,2.236,1.707
		c0.853,0.708,1.707,1.451,2.688,2.074c0.99,0.623,2.005,1.195,3.055,1.707c0.973,0.503,1.92,1.033,2.944,1.442
		c1.024,0.41,2.065,0.666,3.115,0.964c1.152,0.35,2.321,0.631,3.507,0.853c1.05,0.188,2.116,0.239,3.183,0.324
		c0.93,0.077,1.826,0.282,2.773,0.282c0.307,0,0.589-0.085,0.853-0.094c0.265-0.009,0.623,0.068,0.939,0.051
		c0.905-0.043,1.758-0.29,2.645-0.41c1.092-0.145,2.176-0.256,3.234-0.503c0.853-0.205,1.707-0.512,2.56-0.794
		c1.382-0.418,2.739-0.922,4.062-1.51c0.222-0.102,0.427-0.239,0.649-0.35c11.691-5.675,19.132-17.502,19.191-30.498V85.333h25.25
		c14.327,0.017,25.933,11.622,25.95,25.95V153.6z"/>
</g>
<g>
</g>
<g>
</g>
<g>
</g>
<g>
</g>
<g>
</g>
<g>
</g>
<g>
</g>
<g>
</g>
<g>
</g>
<g>
</g>
<g>
</g>
<g>
</g>
<g>
</g>
<g>
</g>
<g>
</g>
</svg>
