<?xml version="1.0" encoding="iso-8859-1"?>
<!-- Generator: Adobe Illustrator 19.0.0, SVG Export Plug-In . SVG Version: 6.00 Build 0)  -->
<svg version="1.1" id="Capa_1" xmlns="http://www.w3.org/2000/svg" xmlns:xlink="http://www.w3.org/1999/xlink" x="0px" y="0px"
	 viewBox="0 0 512 512" style="enable-background:new 0 0 512 512;" xml:space="preserve">
<g>
	
		<linearGradient id="SVGID_1_" gradientUnits="userSpaceOnUse" x1="-43.0931" y1="615.7109" x2="17.0689" y2="615.7109" gradientTransform="matrix(8.5333 0 0 -8.5333 369.1584 5433.2671)">
		<stop  offset="0" style="stop-color:#00A2CC"/>
		<stop  offset="1" style="stop-color:#2B32B2"/>
	</linearGradient>
	<path style="fill:url(#SVGID_1_);" d="M332.805,179.2c0,42.419,34.381,76.8,76.8,76.8s76.8-34.381,76.8-76.8
		s-34.381-76.8-76.8-76.8C367.203,102.451,332.848,136.806,332.805,179.2z M422.081,163.447h17.067
		c-0.043-12.979-8.576-24.405-21.009-28.134v-15.164c32.614,4.685,55.253,34.918,50.569,67.533
		c-3.763,26.214-24.354,46.805-50.569,50.569v-15.164c12.442-3.729,20.975-15.172,21.009-28.16V179.2
		c0-4.71-3.823-8.533-8.533-8.533h-33.485v-7.219c0-6.886,5.589-12.476,12.484-12.467
		C416.492,150.98,422.072,156.561,422.081,163.447z M401.072,120.149v15.164c-12.442,3.729-20.975,15.172-21.009,28.16V179.2
		c0,4.71,3.823,8.533,8.533,8.533h33.485v7.219c0,6.886-5.581,12.476-12.467,12.484c-6.886,0-12.476-5.581-12.484-12.467v-0.009
		h-17.067c0.043,12.979,8.576,24.405,21.009,28.134v15.164c-32.614-4.685-55.253-34.918-50.569-67.533
		C354.267,144.503,374.858,123.913,401.072,120.149z"/>
	
		<linearGradient id="SVGID_2_" gradientUnits="userSpaceOnUse" x1="-43.0931" y1="622.7109" x2="17.0689" y2="622.7109" gradientTransform="matrix(8.5333 0 0 -8.5333 369.1584 5433.2671)">
		<stop  offset="0" style="stop-color:#00A2CC"/>
		<stop  offset="1" style="stop-color:#2B32B2"/>
	</linearGradient>
	<path style="fill:url(#SVGID_2_);" d="M281.605,85.333c0-4.71-3.823-8.533-8.533-8.533c-4.71,0-8.533,3.823-8.533,8.533
		c0,14.14-11.46,25.6-25.6,25.6c-4.71,0-8.533,3.823-8.533,8.533c0,4.71,3.823,8.533,8.533,8.533c14.14,0,25.6,11.46,25.6,25.6
		c0,4.71,3.823,8.533,8.533,8.533c4.71,0,8.533-3.823,8.533-8.533c0-14.14,11.46-25.6,25.6-25.6c4.71,0,8.533-3.823,8.533-8.533
		c0-4.71-3.823-8.533-8.533-8.533C293.066,110.933,281.605,99.473,281.605,85.333z M273.072,128.265
		c-2.483-3.345-5.453-6.315-8.798-8.798c3.345-2.483,6.315-5.453,8.798-8.798c2.483,3.345,5.453,6.315,8.798,8.798
		C278.516,121.95,275.555,124.919,273.072,128.265z"/>
	
		<linearGradient id="SVGID_3_" gradientUnits="userSpaceOnUse" x1="-43.0931" y1="630.2109" x2="17.0689" y2="630.2109" gradientTransform="matrix(8.5333 0 0 -8.5333 369.1584 5433.2671)">
		<stop  offset="0" style="stop-color:#00A2CC"/>
		<stop  offset="1" style="stop-color:#2B32B2"/>
	</linearGradient>
	<path style="fill:url(#SVGID_3_);" d="M401.072,76.8V34.133c0-4.71-3.823-8.533-8.533-8.533c-4.71,0-8.533,3.823-8.533,8.533V76.8
		c0,4.71,3.823,8.533,8.533,8.533C397.249,85.333,401.072,81.51,401.072,76.8z"/>
	
		<linearGradient id="SVGID_4_" gradientUnits="userSpaceOnUse" x1="-43.0931" y1="632.2109" x2="17.0689" y2="632.2109" gradientTransform="matrix(8.5333 0 0 -8.5333 369.1584 5433.2671)">
		<stop  offset="0" style="stop-color:#00A2CC"/>
		<stop  offset="1" style="stop-color:#2B32B2"/>
	</linearGradient>
	<path style="fill:url(#SVGID_4_);" d="M435.205,68.267V8.533c0-4.71-3.823-8.533-8.533-8.533s-8.533,3.823-8.533,8.533v59.733
		c0,4.71,3.823,8.533,8.533,8.533S435.205,72.977,435.205,68.267z"/>
	
		<linearGradient id="SVGID_5_" gradientUnits="userSpaceOnUse" x1="-43.0931" y1="593.7109" x2="17.0689" y2="593.7109" gradientTransform="matrix(8.5333 0 0 -8.5333 369.1584 5433.2671)">
		<stop  offset="0" style="stop-color:#00A2CC"/>
		<stop  offset="1" style="stop-color:#2B32B2"/>
	</linearGradient>
	<path style="fill:url(#SVGID_5_);" d="M506.168,367.377l-76.8-25.6c-1.698-0.572-3.533-0.589-5.239-0.051l-131.61,41.122
		l-39.014-39.014c-3.388-3.277-8.789-3.183-12.066,0.213c-3.191,3.311-3.191,8.55,0,11.853l42.667,42.667
		c2.244,2.244,5.547,3.055,8.576,2.108l133.905-41.813l57.856,19.285L313.102,494.933h-168.03V284.689l38.135-45.756h123.998v0.478
		c-0.034,37.427-30.362,67.755-67.789,67.789h-60.211c-4.71,0-8.533,3.823-8.533,8.533c0,4.71,3.823,8.533,8.533,8.533h60.211
		c46.839-0.051,84.804-38.016,84.855-84.855V230.4c0-4.71-3.823-8.533-8.533-8.533H179.205c-2.534,0-4.941,1.118-6.562,3.063
		l-40.107,48.137H8.539c-4.71,0-8.533,3.823-8.533,8.533v221.867c0,4.71,3.823,8.533,8.533,8.533h307.2
		c1.715,0,3.388-0.521,4.804-1.485l187.733-128c3.891-2.662,4.89-7.97,2.227-11.861
		C509.454,369.118,507.926,367.966,506.168,367.377z M128.005,494.933h-51.2V384c0-4.71-3.823-8.533-8.533-8.533
		c-4.71,0-8.533,3.823-8.533,8.533v110.933H17.072v-204.8h110.933V494.933z"/>
</g>
<g>
</g>
<g>
</g>
<g>
</g>
<g>
</g>
<g>
</g>
<g>
</g>
<g>
</g>
<g>
</g>
<g>
</g>
<g>
</g>
<g>
</g>
<g>
</g>
<g>
</g>
<g>
</g>
<g>
</g>
</svg>
