<?xml version="1.0" encoding="iso-8859-1"?>
<!-- Generator: Adobe Illustrator 19.0.0, SVG Export Plug-In . SVG Version: 6.00 Build 0)  -->
<svg version="1.1" id="Capa_1" xmlns="http://www.w3.org/2000/svg" xmlns:xlink="http://www.w3.org/1999/xlink" x="0px" y="0px"
	 viewBox="0 0 511.999 511.999" style="enable-background:new 0 0 511.999 511.999;" xml:space="preserve">
<g>
	
		<linearGradient id="SVGID_1_" gradientUnits="userSpaceOnUse" x1="-42.7372" y1="595.6736" x2="16.8188" y2="595.6736" gradientTransform="matrix(8.5292 0 0 -8.5292 368.9025 5430.5664)">
		<stop  offset="0" style="stop-color:#00A2CC"/>
		<stop  offset="1" style="stop-color:#2B32B2"/>
	</linearGradient>
	<path style="fill:url(#SVGID_1_);" d="M452.171,247.594h-76.763v-51.175c0-4.708-3.813-8.529-8.529-8.529
		c-1.416,0-2.806,0.35-4.043,1.015L256,246.434l-106.837-57.53c-4.145-2.235-9.322-0.682-11.557,3.471
		c-0.674,1.245-1.023,2.636-1.015,4.043v51.175H59.828c-4.708,0-8.529,3.821-8.529,8.529v59.704c0,4.708,3.821,8.529,8.529,8.529
		h17.058V503.47c0,4.708,3.821,8.529,8.529,8.529h341.168c4.708,0,8.529-3.821,8.529-8.529V324.356h17.058
		c4.708,0,8.529-3.821,8.529-8.529v-59.704C460.701,251.415,456.888,247.594,452.171,247.594z M358.35,210.696v36.897h-68.524
		L358.35,210.696z M153.649,210.696l68.524,36.897h-68.524V210.696z M204.824,494.941H93.945V324.356h110.88V494.941z
		 M204.824,307.298H68.357v-42.646h136.467V307.298z M290.116,494.941h-68.234V324.356h68.234V494.941z M290.116,307.298h-68.234
		v-42.646h68.234V307.298z M418.055,494.941h-110.88V324.356h110.88V494.941z M443.642,307.298H307.175v-42.646h136.467V307.298z"/>
	
		<linearGradient id="SVGID_2_" gradientUnits="userSpaceOnUse" x1="-42.7372" y1="625.1732" x2="16.8188" y2="625.1732" gradientTransform="matrix(8.5292 0 0 -8.5292 368.9025 5430.5664)">
		<stop  offset="0" style="stop-color:#00A2CC"/>
		<stop  offset="1" style="stop-color:#2B32B2"/>
	</linearGradient>
	<path style="fill:url(#SVGID_2_);" d="M249.969,142.744c3.326,3.326,8.734,3.326,12.06,0l51.175-51.175
		c3.326-3.335,3.326-8.725,0-12.06l-25.588-25.588c-3.326-3.326-8.734-3.326-12.06,0L256,73.478l-19.557-19.557
		c-3.326-3.326-8.734-3.326-12.06,0l-25.588,25.588c-3.326,3.335-3.326,8.734,0,12.06L249.969,142.744z M230.412,72.011
		l19.557,19.557c3.326,3.326,8.734,3.326,12.06,0l19.557-19.557l13.527,13.527L256,124.654l-39.115-39.115L230.412,72.011z"/>
	
		<linearGradient id="SVGID_3_" gradientUnits="userSpaceOnUse" x1="-42.7372" y1="622.6876" x2="16.8188" y2="622.6876" gradientTransform="matrix(8.5292 0 0 -8.5292 368.9025 5430.5664)">
		<stop  offset="0" style="stop-color:#00A2CC"/>
		<stop  offset="1" style="stop-color:#2B32B2"/>
	</linearGradient>
	<path style="fill:url(#SVGID_3_);" d="M249.338,235.866c2.943,3.676,8.307,4.273,11.992,1.331c0.495-0.392,0.938-0.844,1.331-1.331
		l68.234-85.292c0.145-0.239,0.273-0.495,0.384-0.751c30.927-41.571,22.295-100.346-19.285-131.273S211.648-3.745,180.721,37.826
		c-24.726,33.238-24.726,78.759,0,111.989c0.111,0.256,0.239,0.512,0.384,0.751L249.338,235.866z M256,216.888l-26.236-32.795
		c17.127,5.075,35.345,5.075,52.472,0L256,216.888z M179.237,94.068c-0.034-42.399,34.304-76.788,76.703-76.823
		c42.399-0.034,76.788,34.304,76.823,76.703c0.017,17.835-6.184,35.115-17.519,48.872l-0.051,0.068
		c-26.91,32.692-75.228,37.375-107.92,10.465c-3.821-3.139-7.327-6.644-10.465-10.465l-0.051-0.068
		C185.42,129.106,179.22,111.86,179.237,94.068z"/>
</g>
<g>
</g>
<g>
</g>
<g>
</g>
<g>
</g>
<g>
</g>
<g>
</g>
<g>
</g>
<g>
</g>
<g>
</g>
<g>
</g>
<g>
</g>
<g>
</g>
<g>
</g>
<g>
</g>
<g>
</g>
</svg>
