<?xml version="1.0" standalone="no"?>
<svg xmlns="http://www.w3.org/2000/svg" viewBox="0 0 144 77" width="144" height="77"><g fill="#af6989" color="#af6989" transform="translate(57.893 0) scale(0.7692308) "><svg width="36.0" height="52.0" x="0.0" y="0.0" viewBox="0 0 36 52"><path fill="currentColor" fill-rule="evenodd" d="M31.113 26.433c-.346.174-.694.087-.867-.26L18.2 5.2l.78-1.3c3.813 6.587 12.393 21.493 12.48 21.667.086.346 0 .693-.347.866zm-2.6 0c-.606.347-.954-.433-1.04-.52-1.906-3.293-6.414-11.093-9.36-16.206l.78-1.3 9.447 16.38s.346.606.433.78c.173.346.086.693-.26.866zm-2.687 12.74c-1.733 3.034-4.94 4.68-8.233 4.68s-6.414-1.646-8.234-4.68c-1.733-2.946-1.646-6.413-.086-9.186.086-.174.173-.347 1.994-3.38l6.326-11.094 6.326 11.094c1.734 3.033 1.821 3.206 1.994 3.38 1.473 2.773 1.56 6.24-.087 9.186zm-6.847-26.086c2.428 4.16 5.2 9.013 6.761 11.7 0 0 .346.52.433.78.173.346.086.693-.26.866-.26.174-.52.087-.78-.086l-.087-.087-.087-.26-6.673-11.613.693-1.3zm-1.386.173L10.226 26l-.087.173c0 .087-.086.087-.086.087-.174.173-.52.26-.78.087-.347-.174-.434-.607-.26-.867.087-.173.433-.78.433-.78 1.907-3.293 5.547-9.533 8.147-14.127l.78 1.3-.78 1.387zM6.673 26.433c-.347-.173-.434-.606-.26-.866.087-.174.433-.78.433-.78L17.593 6.153l.78 1.3c-.26.434-.433.78-.78 1.3-2.947 5.027-7.887 13.607-9.88 17.16-.087.087-.434.867-1.04.52zm-1.734-.26c-.172.347-.606.434-.866.26-.347-.173-.434-.606-.26-.866.087-.174 11.354-19.674 13.78-23.92.174.346.433.78.78 1.3l-.78 1.3L4.939 26.173zm29.554 3.814a15.146 15.146 0 0 0-1.04-2.774c-.346-.866-2.253-3.986-15.427-26.866 0-.26-.26-.347-.433-.347-.174 0-.434.087-.52.26C3.9 23.14 1.993 26.26 1.646 27.127c-.346.866-.78 1.82-1.04 2.773-1.127 4.247-.693 8.667 1.387 12.567.086.26.26.433.346.693C5.633 48.88 11.526 52 17.593 52c6.066 0 11.96-3.12 15.166-8.753.174-.26.26-.434.348-.694 2.079-3.9 2.6-8.32 1.386-12.566z"></path></svg></g><path fill="#3b496b" fill-rule="nonzero" d="M8.06 9.73L8.06 9.73Q8.55 8.74 9.05 7.77Q9.54 6.80 9.94 5.95Q10.34 5.11 10.62 4.44Q10.90 3.77 10.95 3.38L10.95 3.38Q10.99 2.95 10.88 2.65Q10.76 2.34 10.49 2.16Q10.22 1.97 9.86 1.86Q9.49 1.76 9.05 1.73L9.05 1.73Q8.27 1.69 7.21 1.77Q6.14 1.85 5.16 2.07Q4.17 2.30 3.46 2.70Q2.74 3.09 2.70 3.68L2.70 3.68Q2.67 4.01 2.81 4.27L2.81 4.27Q2.93 4.48 3.25 4.66Q3.56 4.85 4.20 4.80L4.20 4.80Q4.31 4.80 4.48 4.78L4.48 4.78Q4.62 4.76 4.83 4.72Q5.04 4.69 5.32 4.62L5.32 4.62L4.17 6.16Q3.84 6.63 3.47 6.73Q3.09 6.82 2.79 6.77L2.79 6.77Q2.63 6.75 2.14 6.61Q1.66 6.47 1.18 6.19Q0.70 5.91 0.35 5.43Q0 4.95 0.07 4.22L0.07 4.22Q0.16 3.38 0.80 2.66Q1.43 1.95 2.57 1.43Q3.70 0.91 5.29 0.63Q6.87 0.35 8.86 0.35L8.86 0.35Q10.36 0.35 11.25 0.67Q12.14 0.98 12.55 1.49Q12.96 1.99 12.95 2.66Q12.94 3.33 12.66 4.03L12.66 4.03Q12.52 4.36 12.25 4.93Q11.98 5.51 11.60 6.27Q11.23 7.03 10.80 7.95Q10.38 8.86 9.96 9.84L9.96 9.84Q10.59 9.89 11.12 9.96Q11.65 10.03 11.95 10.08L11.95 10.08Q12.30 10.17 12.19 10.38L12.19 10.38Q11.98 10.80 11.78 11.02Q11.58 11.23 11.34 11.31Q11.11 11.39 10.83 11.38Q10.55 11.37 10.20 11.34L10.20 11.34Q9.98 11.34 9.77 11.33Q9.56 11.32 9.33 11.30L9.33 11.30Q8.88 12.35 8.47 13.38Q8.06 14.41 7.72 15.34Q7.38 16.27 7.13 17.04Q6.87 17.81 6.77 18.33L6.77 18.33Q6.63 19.05 6.56 19.69L6.56 19.69Q6.52 20.23 6.52 20.81Q6.52 21.40 6.70 21.75L6.70 21.75Q6.21 21.89 5.85 21.98Q5.48 22.08 5.23 22.13L5.23 22.13Q4.95 22.20 4.76 22.24L4.76 22.24Q4.10 22.41 3.83 22.21Q3.56 22.01 3.68 21.26L3.68 21.26Q3.73 20.74 3.83 20.10Q3.94 19.45 4.16 18.64Q4.38 17.84 4.75 16.84Q5.11 15.84 5.67 14.63L5.67 14.63Q6 13.92 6.42 13.07Q6.84 12.21 7.31 11.23L7.31 11.23Q6.28 11.23 5.09 11.37L5.09 11.37Q4.43 11.46 3.80 11.58L3.80 11.58Q3.26 11.70 2.64 11.85Q2.02 12 1.48 12.19L1.48 12.19Q1.41 12 1.39 11.81Q1.38 11.63 1.41 11.46L1.41 11.46Q1.43 11.30 1.48 11.13L1.48 11.13Q1.52 10.97 1.62 10.80L1.62 10.80Q1.76 10.52 2.06 10.10L2.06 10.10Q3.16 9.96 4.17 9.89Q5.18 9.82 5.95 9.77L5.95 9.77Q6.87 9.73 7.66 9.73L7.66 9.73Q7.78 9.70 7.86 9.71Q7.95 9.73 8.06 9.73ZM18.30 4.17L18.30 4.17Q18.23 4.43 18.04 4.68Q17.84 4.92 17.59 5.07Q17.34 5.23 17.09 5.27Q16.83 5.32 16.66 5.18L16.66 5.18Q16.17 4.80 16.15 4.37Q16.13 3.94 16.36 3.55Q16.59 3.16 16.95 2.89Q17.30 2.63 17.55 2.58L17.55 2.58Q17.81 2.53 17.99 2.68Q18.16 2.84 18.26 3.08Q18.35 3.33 18.36 3.63Q18.38 3.94 18.30 4.17ZM15.07 9.16L15.07 9.16Q15.19 9.02 15.52 8.93Q15.84 8.84 16.20 8.78Q16.55 8.72 16.84 8.71Q17.13 8.70 17.18 8.72L17.18 8.72Q17.20 8.74 17.06 9.21Q16.92 9.68 16.71 10.31Q16.50 10.95 16.27 11.61Q16.03 12.28 15.91 12.70L15.91 12.70Q15.80 13.13 15.63 13.65Q15.47 14.18 15.34 14.68Q15.21 15.19 15.16 15.63Q15.12 16.08 15.23 16.31L15.23 16.31Q15.35 16.59 15.49 16.70Q15.63 16.80 15.80 16.80L15.80 16.80Q16.27 16.80 16.98 16.29Q17.70 15.77 18.43 15.06Q19.17 14.34 19.80 13.61Q20.44 12.87 20.74 12.42L20.74 12.42Q20.93 12.19 21.13 12.12Q21.33 12.05 21.46 12.14Q21.59 12.23 21.60 12.45Q21.61 12.66 21.45 12.94L21.45 12.94Q21.07 13.59 20.34 14.50Q19.62 15.40 18.80 16.23Q17.98 17.06 17.19 17.65Q16.41 18.23 15.91 18.26L15.91 18.26Q15.52 18.28 15.13 18.13Q14.74 17.98 14.43 17.71Q14.11 17.44 13.90 17.07Q13.69 16.71 13.66 16.31L13.66 16.31Q13.59 15.73 13.66 14.71Q13.73 13.69 13.92 12.62Q14.11 11.55 14.40 10.59Q14.70 9.63 15.07 9.16ZM26.70 18.56L26.70 18.56Q26.16 18.56 25.77 18.36Q25.38 18.16 25.15 17.84Q24.91 17.51 24.84 17.07Q24.77 16.64 24.89 16.15L24.89 16.15Q24.96 15.82 25.13 15.27Q25.29 14.72 25.46 14.07Q25.64 13.43 25.79 12.79Q25.95 12.14 25.99 11.61Q26.04 11.09 25.95 10.75Q25.85 10.41 25.55 10.41L25.55 10.41Q25.17 10.41 24.77 10.65Q24.38 10.90 23.96 11.32Q23.55 11.74 23.14 12.29Q22.73 12.84 22.34 13.43L22.34 13.43Q22.13 14.23 21.98 14.82Q21.84 15.42 21.74 15.90Q21.63 16.38 21.54 16.75Q21.45 17.11 21.38 17.44L21.38 17.44Q21.30 17.67 20.95 17.89Q20.60 18.12 20.20 18.26Q19.80 18.40 19.51 18.40Q19.22 18.40 19.27 18.19L19.27 18.19Q19.29 18.05 19.42 17.55Q19.55 17.06 19.72 16.39Q19.90 15.73 20.09 14.98Q20.27 14.23 20.44 13.55L20.44 13.55Q20.55 13.01 20.70 12.35L20.70 12.35Q20.81 11.79 20.99 11.04Q21.16 10.29 21.40 9.40L21.40 9.40Q21.56 9.26 21.74 9.18Q21.91 9.09 22.10 9.05L22.10 9.05Q22.29 8.98 22.50 8.95L22.50 8.95Q22.69 8.95 22.88 8.98L22.88 8.98Q23.04 9 23.21 9.06Q23.39 9.12 23.53 9.23L23.53 9.23Q23.46 9.40 23.37 9.69Q23.27 9.98 23.18 10.31L23.18 10.31Q23.09 10.69 22.95 11.09L22.95 11.09Q23.25 10.66 23.64 10.23Q24.02 9.80 24.48 9.45Q24.94 9.09 25.45 8.87Q25.97 8.65 26.51 8.65L26.51 8.65Q26.95 8.65 27.30 8.91Q27.66 9.16 27.86 9.62Q28.05 10.08 28.09 10.71Q28.13 11.34 27.91 12.09L27.91 12.09L27.66 13.13Q27.54 13.62 27.36 14.29Q27.19 14.95 26.93 15.75L26.93 15.75Q26.79 16.27 26.82 16.64Q26.86 17.02 27.28 17.02L27.28 17.02Q27.70 17.02 28.35 16.50Q28.99 15.98 29.65 15.26Q30.30 14.53 30.89 13.77Q31.48 13.01 31.78 12.54L31.78 12.54Q31.99 12.23 32.18 12.14Q32.37 12.05 32.47 12.12Q32.58 12.19 32.58 12.43Q32.58 12.68 32.39 13.05L32.39 13.05Q32.23 13.38 31.89 13.92Q31.55 14.46 31.08 15.07Q30.61 15.68 30.07 16.30Q29.53 16.92 28.95 17.43Q28.36 17.93 27.79 18.25Q27.21 18.56 26.70 18.56ZM38.27 13.50L38.27 13.50Q38.16 14.23 38.05 14.88Q37.95 15.54 37.92 15.94L37.92 15.94Q37.90 16.52 38.13 16.78Q38.37 17.04 38.65 17.04L38.65 17.04Q38.98 17.04 39.46 16.71Q39.94 16.38 40.48 15.89Q41.02 15.40 41.55 14.81Q42.09 14.23 42.55 13.70Q43.01 13.17 43.32 12.77Q43.64 12.38 43.76 12.26L43.76 12.26Q43.90 12.12 44.05 12.09Q44.20 12.07 44.30 12.14Q44.39 12.21 44.39 12.40Q44.39 12.59 44.20 12.87L44.20 12.87Q43.92 13.31 43.48 13.91Q43.03 14.51 42.49 15.14Q41.95 15.77 41.36 16.38Q40.76 16.99 40.16 17.46Q39.56 17.93 39.01 18.22Q38.46 18.52 38.02 18.52L38.02 18.52Q37.69 18.52 37.39 18.33Q37.10 18.14 36.87 17.84Q36.63 17.53 36.50 17.16Q36.38 16.78 36.40 16.41L36.40 16.41Q36.42 16.24 36.47 15.84L36.47 15.84Q35.48 16.95 34.49 17.59Q33.49 18.23 32.58 18.23L32.58 18.23Q32.25 18.23 31.88 18.07Q31.50 17.91 31.21 17.53Q30.91 17.16 30.73 16.55Q30.54 15.94 30.59 15.07L30.59 15.07Q30.66 13.71 31.13 12.49Q31.59 11.27 32.31 10.37Q33.02 9.47 33.93 8.94Q34.83 8.41 35.74 8.41L35.74 8.41Q36.14 8.41 36.47 8.61Q36.80 8.81 37.03 9.13Q37.27 9.45 37.42 9.82Q37.57 10.20 37.64 10.52L37.64 10.52Q37.80 9.84 37.95 9.19Q38.09 8.53 38.23 7.95L38.23 7.95Q38.46 7.08 38.72 6.07L38.72 6.07Q38.95 5.20 39.26 4.08Q39.56 2.95 39.94 1.71L39.94 1.71Q40.17 1.52 40.38 1.43Q40.59 1.34 40.78 1.29L40.78 1.29Q40.99 1.22 41.18 1.22L41.18 1.22Q41.41 1.22 41.60 1.28Q41.79 1.34 41.92 1.58Q42.05 1.83 42.09 2.32Q42.14 2.81 42.09 3.66L42.09 3.66Q42.05 4.69 41.73 5.91Q41.41 7.13 40.90 8.43Q40.38 9.73 39.71 11.03Q39.05 12.33 38.27 13.50ZM36.89 13.80L36.89 13.80Q36.98 13.36 37.07 12.91Q37.15 12.47 37.27 12L37.27 12Q37.22 12.02 37.18 12.05Q37.15 12.07 37.10 12.09L37.10 12.09Q36.84 12.21 36.75 12.08Q36.66 11.95 36.66 11.67L36.66 11.67Q36.66 11.53 36.63 11.17Q36.61 10.80 36.50 10.42Q36.40 10.03 36.19 9.74Q35.98 9.45 35.60 9.45L35.60 9.45Q35.06 9.45 34.50 10.00Q33.94 10.55 33.45 11.33Q32.95 12.12 32.63 13.01Q32.30 13.90 32.25 14.60L32.25 14.60Q32.20 15.73 32.53 16.22Q32.86 16.71 33.42 16.71L33.42 16.71Q33.84 16.71 34.35 16.38Q34.85 16.05 35.33 15.59Q35.81 15.12 36.22 14.63Q36.63 14.13 36.89 13.80ZM49.69 22.36L49.69 22.36Q48.77 22.38 48.18 22.03Q47.58 21.68 47.24 21.01Q46.90 20.34 46.80 19.39Q46.71 18.45 46.80 17.32L46.80 17.32Q46.92 16.45 47.23 15.52L47.23 15.52Q47.48 14.72 48.01 13.76Q48.54 12.80 49.43 11.88L49.43 11.88Q49.62 11.93 49.73 11.99Q49.85 12.05 49.92 12.12L49.92 12.12Q49.99 12.21 50.02 12.28L50.02 12.28Q50.06 12.54 49.88 12.87Q49.69 13.20 49.50 13.57L49.50 13.57Q48.98 14.65 48.73 15.61Q48.47 16.57 48.40 17.39L48.40 17.39Q48.35 18.09 48.41 18.67Q48.47 19.24 48.59 19.65Q48.70 20.06 48.84 20.29Q48.98 20.51 49.10 20.51L49.10 20.51Q49.22 20.51 49.35 20.34Q49.48 20.18 49.59 19.95L49.59 19.95Q49.73 19.71 49.92 19.23Q50.11 18.75 50.32 18.12Q50.53 17.48 50.73 16.75Q50.93 16.01 51.09 15.26L51.09 15.26Q51.42 13.76 51.80 11.87Q52.17 9.98 52.90 7.92L52.90 7.92Q53.13 7.05 53.48 6.02L53.48 6.02Q53.77 5.13 54.20 3.95Q54.63 2.77 55.20 1.38L55.20 1.38Q55.20 1.27 55.39 1.16Q55.59 1.05 55.85 0.94L55.85 0.94Q56.13 0.82 56.48 0.70L56.48 0.70Q56.95 0.54 57.22 0.52Q57.49 0.49 57.63 0.59Q57.77 0.68 57.82 0.83Q57.87 0.98 57.87 1.17L57.87 1.17Q57.91 1.95 57.93 2.63Q57.94 3.30 57.96 3.82L57.96 3.82Q57.98 4.43 57.98 4.92L57.98 4.92Q58.01 5.58 57.91 6.67Q57.82 7.76 57.71 8.95Q57.61 10.15 57.53 11.29Q57.45 12.42 57.49 13.17L57.49 13.17Q57.49 13.57 57.53 13.91Q57.56 14.25 57.61 14.58L57.61 14.58Q57.91 13.73 58.29 12.81Q58.66 11.88 59.04 11.03Q59.41 10.17 59.74 9.43Q60.07 8.70 60.26 8.20L60.26 8.20Q60.54 7.55 61.01 6.54Q61.48 5.53 61.96 4.52Q62.44 3.52 62.85 2.67Q63.26 1.83 63.45 1.50L63.45 1.50Q63.59 1.27 63.93 1.08Q64.27 0.89 64.65 0.75Q65.04 0.61 65.38 0.55Q65.72 0.49 65.84 0.54L65.84 0.54Q66.14 0.61 66.27 0.73Q66.40 0.84 66.42 0.89L66.42 0.89Q66.47 0.98 66.49 1.21Q66.52 1.43 66.47 1.90L66.47 1.90Q66.42 2.46 66.20 3.61Q65.98 4.76 65.66 6.22Q65.34 7.69 64.98 9.35Q64.62 11.02 64.29 12.62Q63.96 14.23 63.71 15.63Q63.47 17.04 63.40 18L63.40 18Q63.35 19.08 63.54 19.90L63.54 19.90Q63.61 20.25 63.75 20.58Q63.89 20.91 64.13 21.15Q64.36 21.40 64.69 21.52Q65.02 21.63 65.46 21.59L65.46 21.59Q64.88 21.98 64.31 22.17Q63.75 22.36 63.21 22.36L63.21 22.36Q62.63 22.38 62.18 22.18Q61.73 21.98 61.43 21.62Q61.13 21.26 60.98 20.75Q60.84 20.25 60.89 19.64L60.89 19.64Q60.94 19.08 61.20 17.79Q61.45 16.50 61.82 14.87Q62.18 13.24 62.61 11.47Q63.05 9.70 63.43 8.14Q63.82 6.59 64.10 5.46Q64.38 4.34 64.45 3.98L64.45 3.98Q64.50 3.70 64.54 3.46Q64.57 3.21 64.62 3.02L64.62 3.02Q64.38 3.49 64.04 4.15Q63.70 4.80 63.33 5.55Q62.95 6.30 62.57 7.11Q62.18 7.92 61.83 8.67L61.83 8.67Q61.24 9.89 60.68 11.17Q60.12 12.45 59.67 13.59Q59.23 14.74 58.93 15.66Q58.64 16.57 58.59 17.06L58.59 17.06L58.59 17.39Q58.59 17.53 58.61 17.72Q58.62 17.91 58.66 18.07L58.66 18.07L57.73 18.80Q57.52 18.87 57.36 18.91Q57.21 18.96 57.07 18.96L57.07 18.96Q56.53 18.96 56.25 18.40L56.25 18.40Q55.97 17.88 55.73 16.38Q55.50 14.88 55.59 12.70L55.59 12.70Q55.64 11.63 55.75 10.52Q55.85 9.42 55.96 8.41Q56.06 7.41 56.16 6.53Q56.25 5.65 56.25 5.02L56.25 5.02Q56.27 4.55 56.23 4.16Q56.18 3.77 56.13 3.45L56.13 3.45Q55.92 3.98 55.66 4.91Q55.41 5.84 55.13 6.96Q54.84 8.09 54.55 9.33Q54.26 10.57 53.99 11.72Q53.72 12.87 53.48 13.84Q53.25 14.81 53.11 15.40L53.11 15.40Q52.88 16.34 52.64 17.53Q52.41 18.73 52.05 19.79Q51.70 20.86 51.14 21.60Q50.58 22.34 49.69 22.36ZM77.37 13.10L77.37 13.10Q76.66 14.13 75.77 15.11Q74.88 16.08 73.89 16.84Q72.89 17.60 71.85 18.07Q70.80 18.54 69.82 18.54L69.82 18.54Q69.30 18.54 68.71 18.29Q68.11 18.05 67.62 17.53Q67.13 17.02 66.83 16.20Q66.54 15.38 66.66 14.20L66.66 14.20Q66.75 13.24 67.25 12.18Q67.76 11.11 68.50 10.22Q69.23 9.33 70.16 8.74Q71.09 8.16 72.02 8.16L72.02 8.16Q72.91 8.16 73.31 8.60Q73.71 9.05 73.66 9.70L73.66 9.70Q73.59 10.43 73.25 11.04Q72.91 11.65 72.45 12.14Q71.98 12.63 71.45 13.03Q70.92 13.43 70.45 13.76L70.45 13.76Q69.94 14.11 69.47 14.43Q69 14.74 68.65 15L68.65 15Q68.67 15.59 68.86 15.98Q69.05 16.38 69.33 16.63Q69.61 16.88 69.97 16.98Q70.34 17.09 70.71 17.09L70.71 17.09Q71.51 17.09 72.38 16.58Q73.24 16.08 74.07 15.36Q74.91 14.65 75.62 13.88Q76.34 13.10 76.80 12.54L76.80 12.54Q76.97 12.35 77.14 12.32Q77.32 12.28 77.43 12.36Q77.53 12.45 77.53 12.64Q77.53 12.84 77.37 13.10ZM71.37 9.49L71.37 9.49Q71.09 9.49 70.70 9.77Q70.31 10.05 69.94 10.58Q69.56 11.11 69.23 11.87Q68.91 12.63 68.74 13.62L68.74 13.62Q69.02 13.41 69.35 13.18Q69.68 12.96 70.01 12.70L70.01 12.70Q71.02 11.93 71.41 11.34Q71.81 10.76 71.86 10.34L71.86 10.34Q71.91 9.89 71.77 9.69Q71.63 9.49 71.37 9.49ZM94.95 15.77L94.95 15.77Q94.80 17.34 94.01 18.59Q93.21 19.83 91.98 20.68Q90.75 21.54 89.20 21.98Q87.66 22.43 86.02 22.43L86.02 22.43Q85.41 22.43 84.88 22.35Q84.35 22.27 83.93 22.15Q83.51 22.03 83.21 21.93Q82.92 21.82 82.80 21.75L82.80 21.75Q82.59 21.63 82.46 21.46Q82.34 21.28 82.31 20.95L82.31 20.95Q82.29 20.77 82.29 20.66Q82.29 20.55 82.31 20.44Q82.34 20.32 82.39 20.12Q82.45 19.92 82.55 19.57L82.55 19.57Q82.59 19.36 82.91 18.25Q83.23 17.13 83.67 15.53Q84.12 13.92 84.64 12.05Q85.17 10.17 85.66 8.41Q86.16 6.66 86.55 5.24Q86.95 3.82 87.14 3.14L87.14 3.14Q86.81 3.38 86.50 3.63Q86.18 3.89 85.85 4.20L85.85 4.20Q85.50 4.52 85.16 4.42Q84.82 4.31 84.68 3.84L84.68 3.84Q84.63 3.61 84.61 3.35L84.61 3.35Q84.59 3.14 84.62 2.87Q84.66 2.60 84.80 2.34L84.80 2.34Q85.57 1.88 86.31 1.55Q87.05 1.22 87.73 0.96L87.73 0.96Q87.87 0.56 88.04 0.35Q88.22 0.14 88.41 0.07Q88.59 0 88.80 0.02Q89.02 0.05 89.25 0.09L89.25 0.09Q89.77 0.21 89.93 0.42L89.93 0.42Q90.26 0.38 90.56 0.35Q90.87 0.33 91.20 0.33L91.20 0.33Q92.55 0.33 93.56 0.68Q94.57 1.03 95.21 1.63Q95.86 2.23 96.14 3.02Q96.42 3.82 96.35 4.71L96.35 4.71Q96.28 5.48 95.94 6.32Q95.60 7.15 95.04 7.96Q94.48 8.77 93.73 9.53Q92.98 10.29 92.06 10.92L92.06 10.92Q92.79 11.34 93.35 11.91Q93.91 12.47 94.29 13.13Q94.66 13.78 94.83 14.46Q94.99 15.14 94.95 15.77ZM87.19 10.03L87.19 10.03Q87.14 10.27 87.08 10.50Q87.02 10.73 86.95 10.99L86.95 10.99Q87.23 10.69 87.90 10.43Q88.57 10.17 89.18 10.17L89.18 10.17Q89.51 10.17 89.81 10.21Q90.12 10.24 90.40 10.29L90.40 10.29Q91.05 9.87 91.66 9.20Q92.27 8.53 92.73 7.77Q93.19 7.01 93.48 6.21Q93.77 5.41 93.84 4.73L93.84 4.73Q93.98 3.12 93.29 2.33Q92.60 1.55 91.34 1.55L91.34 1.55Q90.49 1.55 89.58 1.85L89.58 1.85Q89.39 2.46 89.11 3.36Q88.83 4.27 88.51 5.34Q88.20 6.42 87.84 7.62Q87.49 8.81 87.19 10.03ZM86.79 11.58L86.79 11.58Q86.46 12.84 86.13 14.32L86.13 14.32Q85.83 15.59 85.48 17.26Q85.13 18.94 84.73 20.84L84.73 20.84Q84.87 20.95 85.10 21Q85.34 21.05 85.57 21.09L85.57 21.09Q85.83 21.14 86.13 21.14L86.13 21.14Q87.19 21.14 88.28 20.71Q89.37 20.27 90.28 19.48Q91.20 18.68 91.82 17.54Q92.44 16.41 92.55 15L92.55 15Q92.60 14.37 92.47 13.86Q92.34 13.36 92.10 12.95Q91.85 12.54 91.54 12.22Q91.22 11.91 90.87 11.67L90.87 11.67Q89.79 12.26 88.50 12.66L88.50 12.66Q88.08 12.77 87.77 12.69Q87.47 12.61 87.26 12.43Q87.05 12.26 86.93 12.02Q86.81 11.79 86.79 11.58ZM107.60 13.10L107.60 13.10Q106.90 14.13 106.01 15.11Q105.12 16.08 104.12 16.84Q103.13 17.60 102.08 18.07Q101.04 18.54 100.05 18.54L100.05 18.54Q99.54 18.54 98.94 18.29Q98.34 18.05 97.85 17.53Q97.36 17.02 97.07 16.20Q96.77 15.38 96.89 14.20L96.89 14.20Q96.98 13.24 97.49 12.18Q97.99 11.11 98.73 10.22Q99.47 9.33 100.39 8.74Q101.32 8.16 102.26 8.16L102.26 8.16Q103.15 8.16 103.55 8.60Q103.95 9.05 103.90 9.70L103.90 9.70Q103.83 10.43 103.49 11.04Q103.15 11.65 102.68 12.14Q102.21 12.63 101.68 13.03Q101.16 13.43 100.69 13.76L100.69 13.76Q100.17 14.11 99.70 14.43Q99.23 14.74 98.88 15L98.88 15Q98.91 15.59 99.09 15.98Q99.28 16.38 99.56 16.63Q99.84 16.88 100.21 16.98Q100.57 17.09 100.95 17.09L100.95 17.09Q101.74 17.09 102.61 16.58Q103.48 16.08 104.31 15.36Q105.14 14.65 105.86 13.88Q106.57 13.10 107.04 12.54L107.04 12.54Q107.20 12.35 107.38 12.32Q107.55 12.28 107.66 12.36Q107.77 12.45 107.77 12.64Q107.77 12.84 107.60 13.10ZM101.60 9.49L101.60 9.49Q101.32 9.49 100.93 9.77Q100.55 10.05 100.17 10.58Q99.80 11.11 99.47 11.87Q99.14 12.63 98.98 13.62L98.98 13.62Q99.26 13.41 99.59 13.18Q99.91 12.96 100.24 12.70L100.24 12.70Q101.25 11.93 101.65 11.34Q102.05 10.76 102.09 10.34L102.09 10.34Q102.14 9.89 102 9.69Q101.86 9.49 101.60 9.49ZM117.94 13.31L117.94 13.31Q117.61 13.78 117.09 14.47Q116.58 15.16 116.03 15.86Q115.48 16.55 114.95 17.12Q114.42 17.70 114.07 17.93L114.07 17.93Q113.84 18.07 113.53 18.16Q113.23 18.26 112.91 18.28Q112.59 18.30 112.31 18.25Q112.03 18.19 111.82 18.05L111.82 18.05Q111.61 17.88 111.47 17.58L111.47 17.58Q111.35 17.32 111.25 16.90Q111.14 16.48 111.16 15.84L111.16 15.84Q110.60 16.78 109.92 17.29Q109.24 17.79 108.63 18.02L108.63 18.02Q107.93 18.28 107.23 18.33L107.23 18.33Q106.90 18.33 106.52 18.11Q106.15 17.88 105.89 17.40Q105.63 16.92 105.56 16.16Q105.49 15.40 105.75 14.34L105.75 14.34Q106.08 12.91 106.79 11.74Q107.51 10.57 108.35 9.74Q109.20 8.91 110.02 8.48Q110.84 8.06 111.38 8.11L111.38 8.11Q112.01 8.23 112.41 8.48L112.41 8.48Q112.73 8.72 112.84 9.18Q112.95 9.63 112.45 10.38L112.45 10.38Q112.78 10.31 113.00 10.29Q113.23 10.27 113.34 10.27L113.34 10.27Q113.48 10.27 113.53 10.29L113.53 10.29Q113.55 10.34 113.55 10.49Q113.55 10.64 113.48 11.04Q113.41 11.44 113.27 12.12Q113.13 12.80 112.90 13.88L112.90 13.88Q112.85 14.09 112.82 14.26Q112.78 14.44 112.75 14.61Q112.71 14.79 112.66 15.02Q112.62 15.26 112.55 15.61L112.55 15.61Q112.52 15.82 112.54 16.07Q112.55 16.31 112.62 16.52Q112.69 16.73 112.84 16.86Q112.99 16.99 113.27 16.99L113.27 16.99Q113.51 16.99 113.88 16.70Q114.26 16.41 114.68 15.95Q115.10 15.49 115.56 14.94Q116.02 14.39 116.41 13.88Q116.81 13.36 117.13 12.96Q117.45 12.56 117.59 12.38L117.59 12.38Q117.77 12.16 117.96 12.13Q118.15 12.09 118.24 12.23Q118.34 12.38 118.28 12.66Q118.22 12.94 117.94 13.31ZM111.07 14.34L111.07 14.34Q111.19 13.88 111.35 13.24Q111.52 12.61 111.63 12.02Q111.75 11.44 111.81 11.05Q111.87 10.66 111.77 10.69L111.77 10.69Q111.66 10.71 111.52 10.76L111.52 10.76Q111.40 10.80 111.21 10.83Q111.02 10.85 110.84 10.90L110.84 10.90Q111.02 10.52 111.06 10.28Q111.09 10.03 111.07 9.89L111.07 9.89Q111.05 9.73 110.98 9.63L110.98 9.63Q110.72 9.42 110.07 9.97Q109.43 10.52 108.59 12L108.59 12Q108.23 12.61 108.02 13.30Q107.81 13.99 107.73 14.60Q107.65 15.21 107.70 15.67Q107.74 16.13 107.88 16.27L107.88 16.27Q108.14 16.52 108.47 16.51Q108.80 16.50 109.14 16.32Q109.48 16.15 109.82 15.87Q110.16 15.59 110.43 15.28Q110.70 14.98 110.87 14.72Q111.05 14.46 111.07 14.34ZM119.27 18.35L119.27 18.35Q118.38 18.35 117.82 18.07Q117.26 17.79 116.94 17.38Q116.63 16.97 116.50 16.49Q116.37 16.01 116.37 15.61L116.37 15.61Q116.37 14.91 116.48 14.12Q116.60 13.34 116.77 12.67Q116.93 12 117.06 11.53Q117.19 11.06 117.23 10.95L117.23 10.95Q117.45 10.27 117.79 9.76Q118.13 9.26 118.73 9.07L118.73 9.07Q118.97 9.02 119.23 8.98L119.23 8.98Q119.44 8.95 119.66 8.95Q119.88 8.95 120.07 9.02L120.07 9.02Q119.44 10.64 119.07 11.72Q118.71 12.80 118.52 13.48L118.52 13.48Q118.31 14.25 118.27 14.72L118.27 14.72Q118.15 15.77 118.45 16.31Q118.76 16.85 119.70 16.85L119.70 16.85Q120.30 16.85 120.87 16.39Q121.43 15.94 121.90 15.21L121.90 15.21Q121.83 14.84 121.83 14.44L121.83 14.44Q121.83 13.69 121.96 12.97Q122.09 12.26 122.26 11.64Q122.44 11.02 122.64 10.52Q122.84 10.03 122.98 9.75L122.98 9.75Q123.23 9.19 123.45 9.06Q123.66 8.93 124.13 8.91L124.13 8.91Q124.31 8.88 124.44 8.89Q124.57 8.91 124.66 8.93L124.66 8.93Q124.95 9 124.95 9.21L124.95 9.21Q124.95 9.59 124.90 10.34Q124.85 11.09 124.62 11.88L124.62 11.88Q124.45 12.54 124.30 13.00Q124.15 13.45 124.01 13.77Q123.87 14.09 123.73 14.29Q123.59 14.48 123.47 14.65L123.47 14.65Q123.52 15.35 123.59 15.77Q123.66 16.20 123.76 16.42Q123.87 16.64 124.02 16.72Q124.17 16.80 124.36 16.80L124.36 16.80Q124.69 16.80 125.13 16.49Q125.58 16.17 126.06 15.69Q126.54 15.21 127.02 14.64Q127.50 14.06 127.90 13.55Q128.30 13.03 128.58 12.64Q128.86 12.26 128.93 12.16L128.93 12.16Q129.09 11.95 129.25 11.91Q129.40 11.86 129.49 11.94Q129.59 12.02 129.60 12.20Q129.61 12.38 129.49 12.59L129.49 12.59Q129.02 13.48 128.33 14.47Q127.64 15.47 126.86 16.31Q126.07 17.16 125.27 17.72Q124.48 18.28 123.77 18.28L123.77 18.28Q123.14 18.28 122.78 17.85Q122.41 17.41 122.16 16.59L122.16 16.59Q121.62 17.44 120.89 17.89Q120.16 18.35 119.27 18.35ZM136.27 12.05L136.27 12.05Q136.36 11.91 136.51 11.87Q136.66 11.84 136.76 11.91Q136.85 11.98 136.86 12.14Q136.88 12.30 136.73 12.59L136.73 12.59Q136.27 13.48 135.50 14.51Q134.74 15.54 133.90 16.44Q133.05 17.34 132.26 17.93Q131.46 18.52 130.92 18.52L130.92 18.52Q130.15 18.52 129.63 18.21Q129.12 17.91 128.82 17.46Q128.53 17.02 128.41 16.49Q128.30 15.96 128.34 15.52L128.34 15.52Q128.37 15.14 128.51 14.17Q128.65 13.20 128.88 11.92Q129.12 10.64 129.41 9.18Q129.70 7.71 130.03 6.35L130.03 6.35Q129.63 6.40 129.23 6.45Q128.84 6.49 128.51 6.49L128.51 6.49Q127.76 6.49 127.09 6.32Q126.42 6.14 126.09 5.98L126.09 5.98Q125.91 5.88 125.93 5.71Q125.95 5.53 126.07 5.36Q126.19 5.18 126.36 5.05Q126.54 4.92 126.68 4.92L126.68 4.92Q127.13 4.97 127.64 5.00Q128.16 5.04 128.77 5.02L128.77 5.02Q129.21 4.99 129.62 4.95Q130.03 4.90 130.43 4.83L130.43 4.83Q130.73 3.70 131.03 2.87Q131.32 2.04 131.55 1.71L131.55 1.71Q131.63 1.59 131.87 1.51Q132.12 1.43 132.40 1.39Q132.68 1.36 132.94 1.39Q133.20 1.43 133.31 1.57L133.31 1.57Q133.43 1.76 133.41 2.53Q133.38 3.30 133.15 4.50L133.15 4.50Q134.13 4.50 134.89 4.61Q135.66 4.71 136.20 4.84Q136.73 4.97 137.06 5.10Q137.39 5.23 137.55 5.27L137.55 5.27Q137.72 5.32 137.73 5.51Q137.74 5.70 137.66 5.89Q137.58 6.09 137.39 6.23Q137.20 6.38 136.97 6.33L136.97 6.33Q136.73 6.30 136.44 6.23Q136.15 6.16 135.74 6.12Q135.33 6.07 134.77 6.02Q134.20 5.98 133.45 5.98L133.45 5.98Q133.31 5.98 133.14 5.99Q132.96 6 132.77 6L132.77 6Q132.68 6.38 132.60 6.74Q132.52 7.10 132.38 7.50L132.38 7.50Q132.07 8.44 131.67 9.54L131.67 9.54Q131.32 10.50 130.83 11.74Q130.34 12.98 129.73 14.39L129.73 14.39Q129.59 15.40 129.76 15.93Q129.94 16.45 130.20 16.69L130.20 16.69Q130.50 16.95 130.95 16.97L130.95 16.97Q131.30 17.02 131.80 16.72Q132.30 16.43 132.84 15.94Q133.38 15.45 133.93 14.86Q134.48 14.27 134.95 13.71Q135.42 13.15 135.77 12.69Q136.13 12.23 136.27 12.05ZM141.02 9.35L141.02 9.35Q141.33 9.12 141.62 8.99Q141.91 8.86 142.15 8.81L142.15 8.81Q142.41 8.74 142.66 8.77L142.66 8.77Q143.30 8.81 143.45 9.16Q143.60 9.52 143.48 10.29L143.48 10.29Q143.41 10.69 143.20 11.30Q142.99 11.91 142.71 12.79Q142.43 13.66 142.11 14.79Q141.80 15.91 141.52 17.32L141.52 17.32Q141.23 18.47 140.91 19.97L140.91 19.97Q140.63 21.28 140.24 23.13Q139.85 24.98 139.41 27.38L139.41 27.38Q139.29 27.96 138.90 28.05Q138.52 28.15 138.09 27.96L138.09 27.96Q137.93 27.87 137.79 27.75L137.79 27.75Q137.67 27.63 137.53 27.48Q137.39 27.33 137.30 27.07L137.30 27.07Q137.84 25.10 138.25 23.48Q138.66 21.87 138.98 20.67L138.98 20.67Q139.34 19.29 139.64 18.19L139.64 18.19Q139.76 17.70 139.86 17.21Q139.97 16.73 140.09 16.27L140.09 16.27Q139.78 16.76 139.43 17.20Q139.08 17.65 138.66 17.98Q138.23 18.30 137.75 18.48Q137.27 18.66 136.76 18.59L136.76 18.59Q135.49 18.42 134.96 17.65Q134.44 16.88 134.51 15.63L134.51 15.63Q134.53 15.14 134.65 14.55Q134.77 13.97 134.91 13.43Q135.05 12.89 135.18 12.46Q135.30 12.02 135.38 11.84L135.38 11.84Q135.66 10.95 135.79 10.31Q135.91 9.68 135.59 9.26L135.59 9.26Q135.91 9.05 136.21 8.96Q136.50 8.88 136.73 8.84L136.73 8.84Q136.99 8.81 137.25 8.84L137.25 8.84Q137.88 8.93 137.99 9.30Q138.09 9.68 137.91 10.43L137.91 10.43Q137.81 10.83 137.60 11.45Q137.39 12.07 137.16 12.73Q136.92 13.38 136.73 13.93Q136.55 14.48 136.52 14.72L136.52 14.72Q136.31 15.77 136.50 16.35Q136.69 16.92 137.32 16.92L137.32 16.92Q137.63 16.92 138 16.65Q138.38 16.38 138.76 15.94Q139.15 15.49 139.52 14.92Q139.90 14.34 140.21 13.76Q140.53 13.17 140.78 12.61Q141.02 12.05 141.14 11.60L141.14 11.60Q141.30 10.73 141.35 10.24Q141.40 9.75 141.02 9.35Z" transform="translate(0, 48)"></path></svg>