<?xml version="1.0" encoding="iso-8859-1"?>
<!-- Generator: Adobe Illustrator 19.0.0, SVG Export Plug-In . SVG Version: 6.00 Build 0)  -->
<svg version="1.1" id="Capa_1" xmlns="http://www.w3.org/2000/svg" xmlns:xlink="http://www.w3.org/1999/xlink" x="0px" y="0px"
	 viewBox="0 0 511.999 511.999" style="enable-background:new 0 0 511.999 511.999;" xml:space="preserve">
<g>
	
		<linearGradient id="SVGID_1_" gradientUnits="userSpaceOnUse" x1="-43.0836" y1="618.686" x2="16.3394" y2="618.686" gradientTransform="matrix(8.5306 0 0 -8.5306 369.0358 5431.4961)">
		<stop  offset="0" style="stop-color:#00A2CC"/>
		<stop  offset="1" style="stop-color:#2B32B2"/>
	</linearGradient>
	<path style="fill:url(#SVGID_1_);" d="M256,273.142c65.959,0,119.429-53.47,119.429-119.429S321.958,34.284,256,34.284
		s-119.429,53.47-119.429,119.429C136.639,219.646,190.066,273.073,256,273.142z M256,51.345
		c56.533,0,102.368,45.835,102.368,102.368S312.532,256.08,256,256.08s-102.368-45.835-102.368-102.368
		C153.692,97.206,199.484,51.413,256,51.345z"/>
	
		<linearGradient id="SVGID_2_" gradientUnits="userSpaceOnUse" x1="-43.0836" y1="609.195" x2="16.3394" y2="609.195" gradientTransform="matrix(8.5306 0 0 -8.5306 369.0358 5431.4961)">
		<stop  offset="0" style="stop-color:#00A2CC"/>
		<stop  offset="1" style="stop-color:#2B32B2"/>
	</linearGradient>
	<path style="fill:url(#SVGID_2_);" d="M248.365,464.629c2.099,4.214,7.225,5.929,11.44,3.83c1.655-0.827,3.003-2.167,3.83-3.83
		l101.557-203.123c59.621-60.303,59.075-157.527-1.237-217.147s-157.527-59.075-217.147,1.237
		c-59.143,59.825-59.143,156.094,0,215.919L248.365,464.629z M256,441.741l-77.996-156c48.036,28.697,107.955,28.697,155.991,0
		L256,441.741z M256,17.223c75.317-0.06,136.43,60.951,136.482,136.277c0.026,35.888-14.093,70.352-39.301,95.893
		c-0.384,0.333-0.742,0.7-1.058,1.1c-53.146,52.941-139.092,52.941-192.238,0c-0.324-0.401-0.682-0.768-1.066-1.109
		c-52.898-53.615-52.318-139.962,1.305-192.869C185.665,31.324,220.111,17.197,256,17.223z"/>
	
		<linearGradient id="SVGID_3_" gradientUnits="userSpaceOnUse" x1="-43.0836" y1="593.694" x2="16.3394" y2="593.694" gradientTransform="matrix(8.5306 0 0 -8.5306 369.0358 5431.4961)">
		<stop  offset="0" style="stop-color:#00A2CC"/>
		<stop  offset="1" style="stop-color:#2B32B2"/>
	</linearGradient>
	<path style="fill:url(#SVGID_3_);" d="M435.143,443.754h-136.49c-4.709,0-8.531,3.822-8.531,8.531s3.822,8.531,8.531,8.531h136.49
		c9.426,0,17.061,7.635,17.061,17.061c0,9.426-7.635,17.061-17.061,17.061H76.856c-9.426,0-17.061-7.635-17.061-17.061
		c0-9.426,7.635-17.061,17.061-17.061h136.49c4.709,0,8.531-3.822,8.531-8.531s-3.822-8.531-8.531-8.531H128.04v-93.837H93.918
		v-60.926c18.247-4.709,29.217-23.323,24.509-41.57s-23.323-29.217-41.57-24.508s-29.217,23.323-24.509,41.57
		c3.105,12.02,12.489,21.403,24.509,24.509v77.987h34.123v76.776H76.856c-18.844,0-34.123,15.278-34.123,34.123
		c0,18.844,15.278,34.123,34.123,34.123h358.287c18.844,0,34.123-15.278,34.123-34.123
		C469.265,459.033,453.987,443.754,435.143,443.754z M68.326,256.08c0-9.426,7.635-17.061,17.061-17.061s17.061,7.635,17.061,17.061
		c0,9.426-7.635,17.061-17.061,17.061S68.326,265.507,68.326,256.08z"/>
	
		<linearGradient id="SVGID_4_" gradientUnits="userSpaceOnUse" x1="-43.0836" y1="618.6862" x2="16.3394" y2="618.6862" gradientTransform="matrix(8.5306 0 0 -8.5306 369.0358 5431.4961)">
		<stop  offset="0" style="stop-color:#00A2CC"/>
		<stop  offset="1" style="stop-color:#2B32B2"/>
	</linearGradient>
	<path style="fill:url(#SVGID_4_);" d="M217.032,173.086l-6.355,38.968c-0.759,4.649,2.397,9.034,7.046,9.793
		c1.885,0.307,3.83-0.026,5.502-0.955L256,202.772l32.775,18.119c4.12,2.278,9.315,0.785,11.593-3.335
		c0.93-1.672,1.263-3.617,0.955-5.502l-6.355-38.968l26.854-27.511c3.293-3.37,3.225-8.769-0.145-12.062
		c-1.28-1.245-2.909-2.056-4.675-2.329l-36.759-5.622L263.72,90.373c-2.005-4.265-7.089-6.099-11.346-4.095
		c-1.8,0.845-3.242,2.295-4.095,4.095l-16.524,35.189l-36.758,5.622c-4.658,0.708-7.857,5.059-7.149,9.716
		c0.264,1.766,1.083,3.395,2.329,4.675L217.032,173.086z M238.836,141.77c2.815-0.435,5.221-2.235,6.432-4.811L256,114.079
		l10.732,22.854c1.211,2.576,3.617,4.376,6.432,4.811l24.85,3.796l-18.264,18.716c-1.894,1.936-2.747,4.666-2.312,7.336
		l4.265,25.873l-21.531-11.943c-2.568-1.425-5.69-1.425-8.258,0l-21.531,11.943l4.223-25.873c0.435-2.67-0.418-5.4-2.312-7.336
		l-18.264-18.716L238.836,141.77z"/>
	
		<linearGradient id="SVGID_5_" gradientUnits="userSpaceOnUse" x1="-43.0836" y1="595.6771" x2="16.3394" y2="595.6771" gradientTransform="matrix(8.5306 0 0 -8.5306 369.0358 5431.4961)">
		<stop  offset="0" style="stop-color:#00A2CC"/>
		<stop  offset="1" style="stop-color:#2B32B2"/>
	</linearGradient>
	<path style="fill:url(#SVGID_5_);" d="M403,276.204l-42.653,51.184c-1.28,1.535-1.979,3.472-1.979,5.468v85.306
		c0,4.709,3.822,8.531,8.531,8.531h85.306c4.709,0,8.531-3.822,8.531-8.531v-85.306c0-1.996-0.7-3.933-1.979-5.468l-42.653-51.184
		c-3.267-3.617-8.855-3.898-12.472-0.631C403.409,275.778,403.196,275.982,403,276.204z M443.674,409.632h-68.245v-68.245h68.245
		V409.632z M385.111,324.325l24.44-29.32l24.44,29.32H385.111z"/>
</g>
<g>
</g>
<g>
</g>
<g>
</g>
<g>
</g>
<g>
</g>
<g>
</g>
<g>
</g>
<g>
</g>
<g>
</g>
<g>
</g>
<g>
</g>
<g>
</g>
<g>
</g>
<g>
</g>
<g>
</g>
</svg>
