<?xml version="1.0" encoding="iso-8859-1"?>
<!-- Generator: Adobe Illustrator 19.0.0, SVG Export Plug-In . SVG Version: 6.00 Build 0)  -->
<svg version="1.1" id="Capa_1" xmlns="http://www.w3.org/2000/svg" xmlns:xlink="http://www.w3.org/1999/xlink" x="0px" y="0px"
	 viewBox="0 0 511.997 511.997" style="enable-background:new 0 0 511.997 511.997;" xml:space="preserve">
<g>
	
		<linearGradient id="SVGID_1_" gradientUnits="userSpaceOnUse" x1="-42.7551" y1="606.7079" x2="16.7949" y2="606.7079" gradientTransform="matrix(8.5332 0 0 -8.5332 369.1064 5433.1533)">
		<stop  offset="0" style="stop-color:#00A2CC"/>
		<stop  offset="1" style="stop-color:#2B32B2"/>
	</linearGradient>
	<path style="fill:url(#SVGID_1_);" d="M464.353,94.639L259.557,0.774c-2.261-1.033-4.855-1.033-7.117,0L47.643,94.639
		c-3.029,1.391-4.975,4.42-4.975,7.757v195.948c0,2.261,0.896,4.429,2.492,6.033l204.797,205.112
		c3.328,3.336,8.729,3.345,12.066,0.017c0.009-0.009,0.009-0.009,0.017-0.017l204.797-205.112c1.596-1.604,2.492-3.772,2.492-6.033
		V102.396C469.328,99.06,467.391,96.03,464.353,94.639z M452.262,294.811L255.998,491.382L59.735,294.811V107.874l196.263-89.957
		l196.263,89.957V294.811z"/>
	
		<linearGradient id="SVGID_2_" gradientUnits="userSpaceOnUse" x1="-42.7551" y1="607.3384" x2="16.7949" y2="607.3384" gradientTransform="matrix(8.5332 0 0 -8.5332 369.1064 5433.1533)">
		<stop  offset="0" style="stop-color:#00A2CC"/>
		<stop  offset="1" style="stop-color:#2B32B2"/>
	</linearGradient>
	<path style="fill:url(#SVGID_2_);" d="M252.44,38.32L81.776,116.536c-3.029,1.391-4.975,4.42-4.975,7.757v159.929
		c0,2.261,0.896,4.429,2.492,6.033l170.664,170.928c3.328,3.336,8.729,3.345,12.066,0.017c0.009-0.009,0.009-0.009,0.017-0.017
		l170.664-170.928c1.596-1.604,2.492-3.772,2.492-6.033V124.292c0-3.336-1.946-6.366-4.975-7.757L259.557,38.32
		C257.304,37.288,254.701,37.288,252.44,38.32z M418.129,129.771v150.918L255.998,443.075L93.868,280.689V129.771l162.131-74.307
		L418.129,129.771z"/>
	
		<linearGradient id="SVGID_3_" gradientUnits="userSpaceOnUse" x1="-42.7551" y1="607.7085" x2="16.7949" y2="607.7085" gradientTransform="matrix(8.5332 0 0 -8.5332 369.1064 5433.1533)">
		<stop  offset="0" style="stop-color:#00A2CC"/>
		<stop  offset="1" style="stop-color:#2B32B2"/>
	</linearGradient>
	<path style="fill:url(#SVGID_3_);" d="M193.766,241.427c-3.328-3.328-8.738-3.328-12.066,0l-34.133,34.133
		c-3.328,3.328-3.328,8.738,0,12.066l68.266,68.266c3.328,3.328,8.738,3.328,12.066,0l170.664-170.664
		c3.328-3.328,3.328-8.738,0-12.066l-34.133-34.133c-3.328-3.328-8.738-3.328-12.066,0L221.866,269.527L193.766,241.427z
		 M358.397,157.128l22.067,22.067L221.866,337.793l-56.2-56.2l22.067-22.067l28.1,28.1c3.328,3.328,8.738,3.328,12.066,0
		L358.397,157.128z"/>
	
		<linearGradient id="SVGID_4_" gradientUnits="userSpaceOnUse" x1="-42.7551" y1="617.7085" x2="16.7949" y2="617.7085" gradientTransform="matrix(8.5332 0 0 -8.5332 369.1064 5433.1533)">
		<stop  offset="0" style="stop-color:#00A2CC"/>
		<stop  offset="1" style="stop-color:#2B32B2"/>
	</linearGradient>
	<path style="fill:url(#SVGID_4_);" d="M213.332,110.929c0-4.71-3.823-8.533-8.533-8.533c-4.71,0-8.533,3.823-8.533,8.533
		c-0.026,23.552-19.114,42.64-42.666,42.666c-4.71,0-8.533,3.823-8.533,8.533s3.823,8.533,8.533,8.533
		c23.552,0.026,42.64,19.114,42.666,42.666c0,4.71,3.823,8.533,8.533,8.533c4.71,0,8.533-3.823,8.533-8.533
		c0.026-23.552,19.114-42.64,42.666-42.666c4.71,0,8.533-3.823,8.533-8.533s-3.823-8.533-8.533-8.533
		C232.447,153.57,213.367,134.481,213.332,110.929z M204.799,182.719c-5.069-8.448-12.143-15.522-20.591-20.591
		c8.448-5.069,15.522-12.143,20.591-20.591c5.069,8.448,12.143,15.522,20.591,20.591
		C216.942,167.197,209.876,174.271,204.799,182.719z"/>
</g>
<g>
</g>
<g>
</g>
<g>
</g>
<g>
</g>
<g>
</g>
<g>
</g>
<g>
</g>
<g>
</g>
<g>
</g>
<g>
</g>
<g>
</g>
<g>
</g>
<g>
</g>
<g>
</g>
<g>
</g>
</svg>
